<?xml version="1.0"?>
<svg xmlns="http://www.w3.org/2000/svg" xmlns:xlink="http://www.w3.org/1999/xlink" viewBox="0 0 512 512" width="512" height="512"><linearGradient id="a" gradientUnits="userSpaceOnUse" x1="183" x2="183" y1="12" y2="490.602"><stop offset="0" stop-color="#00efd1"/><stop offset="1" stop-color="#00acea"/></linearGradient><linearGradient id="b" x1="329" x2="329" xlink:href="#a" y1="12" y2="490.602"/><path d="m235 121h-104a10 10 0 0 0 -10 10v104a10 10 0 0 0 10 10h104a10 10 0 0 0 10-10v-104a10 10 0 0 0 -10-10zm-10 104h-84v-84h84z" fill="url(#a)"/><path d="m381 121h-104a10 10 0 0 0 -10 10v104a10 10 0 0 0 10 10h104a10 10 0 0 0 10-10v-104a10 10 0 0 0 -10-10zm-10 104h-84v-84h84z" fill="url(#b)"/><path d="m235 267h-104a10 10 0 0 0 -10 10v104a10 10 0 0 0 10 10h104a10 10 0 0 0 10-10v-104a10 10 0 0 0 -10-10zm-10 104h-84v-84h84z" fill="url(#a)"/><path d="m381 267h-104a10 10 0 0 0 -10 10v104a10 10 0 0 0 10 10h104a10 10 0 0 0 10-10v-104a10 10 0 0 0 -10-10zm-10 104h-84v-84h84z" fill="url(#b)"/></svg>
