<svg height="512" viewBox="0 0 64 64" width="512" xmlns="http://www.w3.org/2000/svg" xmlns:xlink="http://www.w3.org/1999/xlink"><linearGradient id="New_Gradient_Swatch_3" gradientUnits="userSpaceOnUse" x1="32" x2="32" y1="64.675" y2="-1.215"><stop offset="0" stop-color="#006df0"/><stop offset="1" stop-color="#00e7f0"/></linearGradient><linearGradient id="New_Gradient_Swatch_3-2" x1="25" x2="25" xlink:href="#New_Gradient_Swatch_3" y1="64.675" y2="-1.215"/><linearGradient id="New_Gradient_Swatch_3-3" x1="15" x2="15" xlink:href="#New_Gradient_Swatch_3" y1="64.675" y2="-1.215"/><linearGradient id="New_Gradient_Swatch_3-4" x1="35" x2="35" xlink:href="#New_Gradient_Swatch_3" y1="64.675" y2="-1.215"/><g id="Massage"><path d="m57 2h-36a5.006 5.006 0 0 0 -5 5v5h-9a5.006 5.006 0 0 0 -5 5v44a1 1 0 0 0 .724.961 1.011 1.011 0 0 0 .276.039 1 1 0 0 0 .848-.47l9.413-15.06a.992.992 0 0 1 .847-.47h28.892a5.006 5.006 0 0 0 5-5v-5h1.892a.992.992 0 0 1 .847.47l9.413 15.06a1 1 0 0 0 1.848-.53v-44a5.006 5.006 0 0 0 -5-5zm-11 39a3 3 0 0 1 -3 3h-28.892a2.983 2.983 0 0 0 -2.544 1.41l-7.564 12.103v-40.513a3 3 0 0 1 3-3h36a3 3 0 0 1 3 3zm14 6.513-7.564-12.1a2.983 2.983 0 0 0 -2.544-1.413h-1.892v-17a5.006 5.006 0 0 0 -5-5h-25v-5a3 3 0 0 1 3-3h36a3 3 0 0 1 3 3z" fill="url(#New_Gradient_Swatch_3)"/><path d="m25 26a3 3 0 1 0 3 3 3 3 0 0 0 -3-3zm0 4a1 1 0 1 1 1-1 1 1 0 0 1 -1 1z" fill="url(#New_Gradient_Swatch_3-2)"/><path d="m15 26a3 3 0 1 0 3 3 3 3 0 0 0 -3-3zm0 4a1 1 0 1 1 1-1 1 1 0 0 1 -1 1z" fill="url(#New_Gradient_Swatch_3-3)"/><path d="m35 26a3 3 0 1 0 3 3 3 3 0 0 0 -3-3zm0 4a1 1 0 1 1 1-1 1 1 0 0 1 -1 1z" fill="url(#New_Gradient_Swatch_3-4)"/></g></svg>